<mxfile host="app.diagrams.net" modified="2022-05-02T17:08:38.092Z" agent="5.0 (Macintosh)" etag="lVVcUoGCrffJN0xQ-INM" version="17.5.0" type="github">
  <diagram id="kODXxytvF_YsxB5PEivD" name="Page-1">
    <mxGraphModel dx="1650" dy="905" grid="1" gridSize="10" guides="1" tooltips="1" connect="1" arrows="1" fold="1" page="1" pageScale="1" pageWidth="827" pageHeight="1169" background="#ffffff" math="0" shadow="1">
      <root>
        <mxCell id="0" />
        <mxCell id="1" parent="0" />
        <mxCell id="fvgUi23KrRUrC4LZ6PZB-63" value="" style="rounded=0;whiteSpace=wrap;html=1;shadow=0;sketch=0;" vertex="1" parent="1">
          <mxGeometry width="827" height="800" as="geometry" />
        </mxCell>
        <mxCell id="fvgUi23KrRUrC4LZ6PZB-57" value="" style="edgeStyle=orthogonalEdgeStyle;rounded=0;orthogonalLoop=1;jettySize=auto;html=1;entryX=0;entryY=0.5;entryDx=0;entryDy=0;endArrow=none;endFill=0;" edge="1" parent="1" source="fvgUi23KrRUrC4LZ6PZB-1" target="fvgUi23KrRUrC4LZ6PZB-46">
          <mxGeometry relative="1" as="geometry" />
        </mxCell>
        <mxCell id="fvgUi23KrRUrC4LZ6PZB-1" value="Farmer" style="swimlane;fontStyle=0;childLayout=stackLayout;horizontal=1;startSize=26;fillColor=#dae8fc;horizontalStack=0;resizeParent=1;resizeParentMax=0;resizeLast=0;collapsible=1;marginBottom=0;rounded=1;aspect=fixed;swimlaneLine=1;shadow=0;sketch=0;strokeColor=#000000;" vertex="1" parent="1">
          <mxGeometry x="40" y="122" width="160" height="156" as="geometry" />
        </mxCell>
        <mxCell id="fvgUi23KrRUrC4LZ6PZB-2" value="event: FarmerAdded" style="text;strokeColor=none;fillColor=none;align=left;verticalAlign=top;spacingLeft=4;spacingRight=4;overflow=hidden;rotatable=0;points=[[0,0.5],[1,0.5]];portConstraint=eastwest;" vertex="1" parent="fvgUi23KrRUrC4LZ6PZB-1">
          <mxGeometry y="26" width="160" height="26" as="geometry" />
        </mxCell>
        <mxCell id="fvgUi23KrRUrC4LZ6PZB-3" value="event: FarmerRemoved" style="text;strokeColor=none;fillColor=none;align=left;verticalAlign=top;spacingLeft=4;spacingRight=4;overflow=hidden;rotatable=0;points=[[0,0.5],[1,0.5]];portConstraint=eastwest;" vertex="1" parent="fvgUi23KrRUrC4LZ6PZB-1">
          <mxGeometry y="52" width="160" height="26" as="geometry" />
        </mxCell>
        <mxCell id="fvgUi23KrRUrC4LZ6PZB-6" value="function: isFarmer()" style="text;strokeColor=none;fillColor=none;align=left;verticalAlign=top;spacingLeft=4;spacingRight=4;overflow=hidden;rotatable=0;points=[[0,0.5],[1,0.5]];portConstraint=eastwest;" vertex="1" parent="fvgUi23KrRUrC4LZ6PZB-1">
          <mxGeometry y="78" width="160" height="26" as="geometry" />
        </mxCell>
        <mxCell id="fvgUi23KrRUrC4LZ6PZB-4" value="function: addFarmer()" style="text;strokeColor=none;fillColor=none;align=left;verticalAlign=top;spacingLeft=4;spacingRight=4;overflow=hidden;rotatable=0;points=[[0,0.5],[1,0.5]];portConstraint=eastwest;" vertex="1" parent="fvgUi23KrRUrC4LZ6PZB-1">
          <mxGeometry y="104" width="160" height="26" as="geometry" />
        </mxCell>
        <mxCell id="fvgUi23KrRUrC4LZ6PZB-7" value="function: revokeFarmer()" style="text;strokeColor=none;fillColor=none;align=left;verticalAlign=top;spacingLeft=4;spacingRight=4;overflow=hidden;rotatable=0;points=[[0,0.5],[1,0.5]];portConstraint=eastwest;" vertex="1" parent="fvgUi23KrRUrC4LZ6PZB-1">
          <mxGeometry y="130" width="160" height="26" as="geometry" />
        </mxCell>
        <mxCell id="fvgUi23KrRUrC4LZ6PZB-8" value="Distributor" style="swimlane;fontStyle=0;childLayout=stackLayout;horizontal=1;startSize=26;fillColor=#d5e8d4;horizontalStack=0;resizeParent=1;resizeParentMax=0;resizeLast=0;collapsible=1;marginBottom=0;rounded=1;aspect=fixed;swimlaneLine=1;shadow=0;sketch=0;strokeColor=#000000;" vertex="1" parent="1">
          <mxGeometry x="40" y="322" width="160" height="156" as="geometry" />
        </mxCell>
        <mxCell id="fvgUi23KrRUrC4LZ6PZB-9" value="event: DistributorAdded" style="text;strokeColor=none;fillColor=none;align=left;verticalAlign=top;spacingLeft=4;spacingRight=4;overflow=hidden;rotatable=0;points=[[0,0.5],[1,0.5]];portConstraint=eastwest;" vertex="1" parent="fvgUi23KrRUrC4LZ6PZB-8">
          <mxGeometry y="26" width="160" height="26" as="geometry" />
        </mxCell>
        <mxCell id="fvgUi23KrRUrC4LZ6PZB-10" value="event: DistributorRemoved" style="text;strokeColor=none;fillColor=none;align=left;verticalAlign=top;spacingLeft=4;spacingRight=4;overflow=hidden;rotatable=0;points=[[0,0.5],[1,0.5]];portConstraint=eastwest;" vertex="1" parent="fvgUi23KrRUrC4LZ6PZB-8">
          <mxGeometry y="52" width="160" height="26" as="geometry" />
        </mxCell>
        <mxCell id="fvgUi23KrRUrC4LZ6PZB-11" value="function: isDistributor()" style="text;strokeColor=none;fillColor=none;align=left;verticalAlign=top;spacingLeft=4;spacingRight=4;overflow=hidden;rotatable=0;points=[[0,0.5],[1,0.5]];portConstraint=eastwest;" vertex="1" parent="fvgUi23KrRUrC4LZ6PZB-8">
          <mxGeometry y="78" width="160" height="26" as="geometry" />
        </mxCell>
        <mxCell id="fvgUi23KrRUrC4LZ6PZB-12" value="function: addDistributor()" style="text;strokeColor=none;fillColor=none;align=left;verticalAlign=top;spacingLeft=4;spacingRight=4;overflow=hidden;rotatable=0;points=[[0,0.5],[1,0.5]];portConstraint=eastwest;" vertex="1" parent="fvgUi23KrRUrC4LZ6PZB-8">
          <mxGeometry y="104" width="160" height="26" as="geometry" />
        </mxCell>
        <mxCell id="fvgUi23KrRUrC4LZ6PZB-13" value="function: revokeDistributor()" style="text;strokeColor=none;fillColor=none;align=left;verticalAlign=top;spacingLeft=4;spacingRight=4;overflow=hidden;rotatable=0;points=[[0,0.5],[1,0.5]];portConstraint=eastwest;" vertex="1" parent="fvgUi23KrRUrC4LZ6PZB-8">
          <mxGeometry y="130" width="160" height="26" as="geometry" />
        </mxCell>
        <mxCell id="fvgUi23KrRUrC4LZ6PZB-14" value="Sypply Chain" style="swimlane;fontStyle=0;childLayout=stackLayout;horizontal=1;startSize=26;fillColor=#e1d5e7;horizontalStack=0;resizeParent=1;resizeParentMax=0;resizeLast=0;collapsible=1;marginBottom=0;rounded=1;aspect=fixed;swimlaneLine=1;shadow=0;sketch=0;strokeColor=#000000;" vertex="1" parent="1">
          <mxGeometry x="314" y="40" width="200" height="520" as="geometry" />
        </mxCell>
        <mxCell id="fvgUi23KrRUrC4LZ6PZB-15" value="event: Harvested" style="text;strokeColor=none;fillColor=none;align=left;verticalAlign=top;spacingLeft=4;spacingRight=4;overflow=hidden;rotatable=0;points=[[0,0.5],[1,0.5]];portConstraint=eastwest;" vertex="1" parent="fvgUi23KrRUrC4LZ6PZB-14">
          <mxGeometry y="26" width="200" height="26" as="geometry" />
        </mxCell>
        <mxCell id="fvgUi23KrRUrC4LZ6PZB-39" value="event: Processed" style="text;strokeColor=none;fillColor=none;align=left;verticalAlign=top;spacingLeft=4;spacingRight=4;overflow=hidden;rotatable=0;points=[[0,0.5],[1,0.5]];portConstraint=eastwest;" vertex="1" parent="fvgUi23KrRUrC4LZ6PZB-14">
          <mxGeometry y="52" width="200" height="26" as="geometry" />
        </mxCell>
        <mxCell id="fvgUi23KrRUrC4LZ6PZB-40" value="event: Packaged" style="text;strokeColor=none;fillColor=none;align=left;verticalAlign=top;spacingLeft=4;spacingRight=4;overflow=hidden;rotatable=0;points=[[0,0.5],[1,0.5]];portConstraint=eastwest;" vertex="1" parent="fvgUi23KrRUrC4LZ6PZB-14">
          <mxGeometry y="78" width="200" height="26" as="geometry" />
        </mxCell>
        <mxCell id="fvgUi23KrRUrC4LZ6PZB-44" value="event: ForSale" style="text;strokeColor=none;fillColor=none;align=left;verticalAlign=top;spacingLeft=4;spacingRight=4;overflow=hidden;rotatable=0;points=[[0,0.5],[1,0.5]];portConstraint=eastwest;" vertex="1" parent="fvgUi23KrRUrC4LZ6PZB-14">
          <mxGeometry y="104" width="200" height="26" as="geometry" />
        </mxCell>
        <mxCell id="fvgUi23KrRUrC4LZ6PZB-43" value="event: Sold" style="text;strokeColor=none;fillColor=none;align=left;verticalAlign=top;spacingLeft=4;spacingRight=4;overflow=hidden;rotatable=0;points=[[0,0.5],[1,0.5]];portConstraint=eastwest;" vertex="1" parent="fvgUi23KrRUrC4LZ6PZB-14">
          <mxGeometry y="130" width="200" height="26" as="geometry" />
        </mxCell>
        <mxCell id="fvgUi23KrRUrC4LZ6PZB-16" value="event: Shipped" style="text;strokeColor=none;fillColor=none;align=left;verticalAlign=top;spacingLeft=4;spacingRight=4;overflow=hidden;rotatable=0;points=[[0,0.5],[1,0.5]];portConstraint=eastwest;" vertex="1" parent="fvgUi23KrRUrC4LZ6PZB-14">
          <mxGeometry y="156" width="200" height="26" as="geometry" />
        </mxCell>
        <mxCell id="fvgUi23KrRUrC4LZ6PZB-42" value="event: Received" style="text;strokeColor=none;fillColor=none;align=left;verticalAlign=top;spacingLeft=4;spacingRight=4;overflow=hidden;rotatable=0;points=[[0,0.5],[1,0.5]];portConstraint=eastwest;" vertex="1" parent="fvgUi23KrRUrC4LZ6PZB-14">
          <mxGeometry y="182" width="200" height="26" as="geometry" />
        </mxCell>
        <mxCell id="fvgUi23KrRUrC4LZ6PZB-41" value="event: Purchased" style="text;strokeColor=none;fillColor=none;align=left;verticalAlign=top;spacingLeft=4;spacingRight=4;overflow=hidden;rotatable=0;points=[[0,0.5],[1,0.5]];portConstraint=eastwest;" vertex="1" parent="fvgUi23KrRUrC4LZ6PZB-14">
          <mxGeometry y="208" width="200" height="26" as="geometry" />
        </mxCell>
        <mxCell id="fvgUi23KrRUrC4LZ6PZB-46" value="Â " style="text;strokeColor=none;fillColor=none;align=left;verticalAlign=top;spacingLeft=4;spacingRight=4;overflow=hidden;rotatable=0;points=[[0,0.5],[1,0.5]];portConstraint=eastwest;" vertex="1" parent="fvgUi23KrRUrC4LZ6PZB-14">
          <mxGeometry y="234" width="200" height="26" as="geometry" />
        </mxCell>
        <mxCell id="fvgUi23KrRUrC4LZ6PZB-47" value="function: harvestItem()" style="text;strokeColor=none;fillColor=none;align=left;verticalAlign=top;spacingLeft=4;spacingRight=4;overflow=hidden;rotatable=0;points=[[0,0.5],[1,0.5]];portConstraint=eastwest;" vertex="1" parent="fvgUi23KrRUrC4LZ6PZB-14">
          <mxGeometry y="260" width="200" height="26" as="geometry" />
        </mxCell>
        <mxCell id="fvgUi23KrRUrC4LZ6PZB-48" value="function: processItem()" style="text;strokeColor=none;fillColor=none;align=left;verticalAlign=top;spacingLeft=4;spacingRight=4;overflow=hidden;rotatable=0;points=[[0,0.5],[1,0.5]];portConstraint=eastwest;" vertex="1" parent="fvgUi23KrRUrC4LZ6PZB-14">
          <mxGeometry y="286" width="200" height="26" as="geometry" />
        </mxCell>
        <mxCell id="fvgUi23KrRUrC4LZ6PZB-49" value="function: packageItem()" style="text;strokeColor=none;fillColor=none;align=left;verticalAlign=top;spacingLeft=4;spacingRight=4;overflow=hidden;rotatable=0;points=[[0,0.5],[1,0.5]];portConstraint=eastwest;" vertex="1" parent="fvgUi23KrRUrC4LZ6PZB-14">
          <mxGeometry y="312" width="200" height="26" as="geometry" />
        </mxCell>
        <mxCell id="fvgUi23KrRUrC4LZ6PZB-51" value="function: sellItem()" style="text;strokeColor=none;fillColor=none;align=left;verticalAlign=top;spacingLeft=4;spacingRight=4;overflow=hidden;rotatable=0;points=[[0,0.5],[1,0.5]];portConstraint=eastwest;" vertex="1" parent="fvgUi23KrRUrC4LZ6PZB-14">
          <mxGeometry y="338" width="200" height="26" as="geometry" />
        </mxCell>
        <mxCell id="fvgUi23KrRUrC4LZ6PZB-53" value="function: buyItem()" style="text;strokeColor=none;fillColor=none;align=left;verticalAlign=top;spacingLeft=4;spacingRight=4;overflow=hidden;rotatable=0;points=[[0,0.5],[1,0.5]];portConstraint=eastwest;" vertex="1" parent="fvgUi23KrRUrC4LZ6PZB-14">
          <mxGeometry y="364" width="200" height="26" as="geometry" />
        </mxCell>
        <mxCell id="fvgUi23KrRUrC4LZ6PZB-52" value="function: shipItem()" style="text;strokeColor=none;fillColor=none;align=left;verticalAlign=top;spacingLeft=4;spacingRight=4;overflow=hidden;rotatable=0;points=[[0,0.5],[1,0.5]];portConstraint=eastwest;" vertex="1" parent="fvgUi23KrRUrC4LZ6PZB-14">
          <mxGeometry y="390" width="200" height="26" as="geometry" />
        </mxCell>
        <mxCell id="fvgUi23KrRUrC4LZ6PZB-55" value="function: receiveItem()" style="text;strokeColor=none;fillColor=none;align=left;verticalAlign=top;spacingLeft=4;spacingRight=4;overflow=hidden;rotatable=0;points=[[0,0.5],[1,0.5]];portConstraint=eastwest;" vertex="1" parent="fvgUi23KrRUrC4LZ6PZB-14">
          <mxGeometry y="416" width="200" height="26" as="geometry" />
        </mxCell>
        <mxCell id="fvgUi23KrRUrC4LZ6PZB-54" value="function: purchaseItem()" style="text;strokeColor=none;fillColor=none;align=left;verticalAlign=top;spacingLeft=4;spacingRight=4;overflow=hidden;rotatable=0;points=[[0,0.5],[1,0.5]];portConstraint=eastwest;" vertex="1" parent="fvgUi23KrRUrC4LZ6PZB-14">
          <mxGeometry y="442" width="200" height="26" as="geometry" />
        </mxCell>
        <mxCell id="fvgUi23KrRUrC4LZ6PZB-50" value="function: fetchItemBufferOne()" style="text;strokeColor=none;fillColor=none;align=left;verticalAlign=top;spacingLeft=4;spacingRight=4;overflow=hidden;rotatable=0;points=[[0,0.5],[1,0.5]];portConstraint=eastwest;" vertex="1" parent="fvgUi23KrRUrC4LZ6PZB-14">
          <mxGeometry y="468" width="200" height="26" as="geometry" />
        </mxCell>
        <mxCell id="fvgUi23KrRUrC4LZ6PZB-56" value="function: fetchItemBufferTwo()" style="text;strokeColor=none;fillColor=none;align=left;verticalAlign=top;spacingLeft=4;spacingRight=4;overflow=hidden;rotatable=0;points=[[0,0.5],[1,0.5]];portConstraint=eastwest;" vertex="1" parent="fvgUi23KrRUrC4LZ6PZB-14">
          <mxGeometry y="494" width="200" height="26" as="geometry" />
        </mxCell>
        <mxCell id="fvgUi23KrRUrC4LZ6PZB-20" value="Customer" style="swimlane;fontStyle=0;childLayout=stackLayout;horizontal=1;startSize=26;fillColor=#f8cecc;horizontalStack=0;resizeParent=1;resizeParentMax=0;resizeLast=0;collapsible=1;marginBottom=0;rounded=1;aspect=fixed;swimlaneLine=1;shadow=0;sketch=0;strokeColor=#000000;" vertex="1" parent="1">
          <mxGeometry x="630" y="120" width="160" height="156" as="geometry" />
        </mxCell>
        <mxCell id="fvgUi23KrRUrC4LZ6PZB-21" value="event: CustomerAdded" style="text;strokeColor=none;fillColor=none;align=left;verticalAlign=top;spacingLeft=4;spacingRight=4;overflow=hidden;rotatable=0;points=[[0,0.5],[1,0.5]];portConstraint=eastwest;" vertex="1" parent="fvgUi23KrRUrC4LZ6PZB-20">
          <mxGeometry y="26" width="160" height="26" as="geometry" />
        </mxCell>
        <mxCell id="fvgUi23KrRUrC4LZ6PZB-22" value="event: CustomerRemoved" style="text;strokeColor=none;fillColor=none;align=left;verticalAlign=top;spacingLeft=4;spacingRight=4;overflow=hidden;rotatable=0;points=[[0,0.5],[1,0.5]];portConstraint=eastwest;" vertex="1" parent="fvgUi23KrRUrC4LZ6PZB-20">
          <mxGeometry y="52" width="160" height="26" as="geometry" />
        </mxCell>
        <mxCell id="fvgUi23KrRUrC4LZ6PZB-23" value="function: isCustomer()" style="text;strokeColor=none;fillColor=none;align=left;verticalAlign=top;spacingLeft=4;spacingRight=4;overflow=hidden;rotatable=0;points=[[0,0.5],[1,0.5]];portConstraint=eastwest;" vertex="1" parent="fvgUi23KrRUrC4LZ6PZB-20">
          <mxGeometry y="78" width="160" height="26" as="geometry" />
        </mxCell>
        <mxCell id="fvgUi23KrRUrC4LZ6PZB-24" value="function: addCustomer()" style="text;strokeColor=none;fillColor=none;align=left;verticalAlign=top;spacingLeft=4;spacingRight=4;overflow=hidden;rotatable=0;points=[[0,0.5],[1,0.5]];portConstraint=eastwest;" vertex="1" parent="fvgUi23KrRUrC4LZ6PZB-20">
          <mxGeometry y="104" width="160" height="26" as="geometry" />
        </mxCell>
        <mxCell id="fvgUi23KrRUrC4LZ6PZB-25" value="function: revokeCustomer()" style="text;strokeColor=none;fillColor=none;align=left;verticalAlign=top;spacingLeft=4;spacingRight=4;overflow=hidden;rotatable=0;points=[[0,0.5],[1,0.5]];portConstraint=eastwest;" vertex="1" parent="fvgUi23KrRUrC4LZ6PZB-20">
          <mxGeometry y="130" width="160" height="26" as="geometry" />
        </mxCell>
        <mxCell id="fvgUi23KrRUrC4LZ6PZB-26" value="Retailer" style="swimlane;fontStyle=0;childLayout=stackLayout;horizontal=1;startSize=26;fillColor=#ffe6cc;horizontalStack=0;resizeParent=1;resizeParentMax=0;resizeLast=0;collapsible=1;marginBottom=0;rounded=1;aspect=fixed;swimlaneLine=1;shadow=0;sketch=0;strokeColor=#000000;" vertex="1" parent="1">
          <mxGeometry x="630" y="320" width="160" height="156" as="geometry" />
        </mxCell>
        <mxCell id="fvgUi23KrRUrC4LZ6PZB-27" value="event: RetailerAdded" style="text;strokeColor=none;fillColor=none;align=left;verticalAlign=top;spacingLeft=4;spacingRight=4;overflow=hidden;rotatable=0;points=[[0,0.5],[1,0.5]];portConstraint=eastwest;" vertex="1" parent="fvgUi23KrRUrC4LZ6PZB-26">
          <mxGeometry y="26" width="160" height="26" as="geometry" />
        </mxCell>
        <mxCell id="fvgUi23KrRUrC4LZ6PZB-28" value="event: RetailerRemoved" style="text;strokeColor=none;fillColor=none;align=left;verticalAlign=top;spacingLeft=4;spacingRight=4;overflow=hidden;rotatable=0;points=[[0,0.5],[1,0.5]];portConstraint=eastwest;" vertex="1" parent="fvgUi23KrRUrC4LZ6PZB-26">
          <mxGeometry y="52" width="160" height="26" as="geometry" />
        </mxCell>
        <mxCell id="fvgUi23KrRUrC4LZ6PZB-29" value="function: isRetailer()" style="text;strokeColor=none;fillColor=none;align=left;verticalAlign=top;spacingLeft=4;spacingRight=4;overflow=hidden;rotatable=0;points=[[0,0.5],[1,0.5]];portConstraint=eastwest;" vertex="1" parent="fvgUi23KrRUrC4LZ6PZB-26">
          <mxGeometry y="78" width="160" height="26" as="geometry" />
        </mxCell>
        <mxCell id="fvgUi23KrRUrC4LZ6PZB-30" value="function: addRetailer()" style="text;strokeColor=none;fillColor=none;align=left;verticalAlign=top;spacingLeft=4;spacingRight=4;overflow=hidden;rotatable=0;points=[[0,0.5],[1,0.5]];portConstraint=eastwest;" vertex="1" parent="fvgUi23KrRUrC4LZ6PZB-26">
          <mxGeometry y="104" width="160" height="26" as="geometry" />
        </mxCell>
        <mxCell id="fvgUi23KrRUrC4LZ6PZB-31" value="function: revokeRetailer()" style="text;strokeColor=none;fillColor=none;align=left;verticalAlign=top;spacingLeft=4;spacingRight=4;overflow=hidden;rotatable=0;points=[[0,0.5],[1,0.5]];portConstraint=eastwest;" vertex="1" parent="fvgUi23KrRUrC4LZ6PZB-26">
          <mxGeometry y="130" width="160" height="26" as="geometry" />
        </mxCell>
        <mxCell id="fvgUi23KrRUrC4LZ6PZB-62" value="" style="edgeStyle=orthogonalEdgeStyle;rounded=0;orthogonalLoop=1;jettySize=auto;html=1;endArrow=none;endFill=0;" edge="1" parent="1" source="fvgUi23KrRUrC4LZ6PZB-32" target="fvgUi23KrRUrC4LZ6PZB-56">
          <mxGeometry relative="1" as="geometry">
            <Array as="points">
              <mxPoint x="414" y="580" />
              <mxPoint x="414" y="580" />
            </Array>
          </mxGeometry>
        </mxCell>
        <mxCell id="fvgUi23KrRUrC4LZ6PZB-32" value="Ownable" style="swimlane;fontStyle=0;childLayout=stackLayout;horizontal=1;startSize=26;fillColor=#fff2cc;horizontalStack=0;resizeParent=1;resizeParentMax=0;resizeLast=0;collapsible=1;marginBottom=0;rounded=1;aspect=fixed;swimlaneLine=1;shadow=0;sketch=0;strokeColor=#000000;" vertex="1" parent="1">
          <mxGeometry x="314" y="640" width="200" height="130" as="geometry" />
        </mxCell>
        <mxCell id="fvgUi23KrRUrC4LZ6PZB-35" value="function: owner()" style="text;strokeColor=none;fillColor=none;align=left;verticalAlign=top;spacingLeft=4;spacingRight=4;overflow=hidden;rotatable=0;points=[[0,0.5],[1,0.5]];portConstraint=eastwest;" vertex="1" parent="fvgUi23KrRUrC4LZ6PZB-32">
          <mxGeometry y="26" width="200" height="26" as="geometry" />
        </mxCell>
        <mxCell id="fvgUi23KrRUrC4LZ6PZB-36" value="function: isOwner()" style="text;strokeColor=none;fillColor=none;align=left;verticalAlign=top;spacingLeft=4;spacingRight=4;overflow=hidden;rotatable=0;points=[[0,0.5],[1,0.5]];portConstraint=eastwest;" vertex="1" parent="fvgUi23KrRUrC4LZ6PZB-32">
          <mxGeometry y="52" width="200" height="26" as="geometry" />
        </mxCell>
        <mxCell id="fvgUi23KrRUrC4LZ6PZB-37" value="function: renounceOwnership()" style="text;strokeColor=none;fillColor=none;align=left;verticalAlign=top;spacingLeft=4;spacingRight=4;overflow=hidden;rotatable=0;points=[[0,0.5],[1,0.5]];portConstraint=eastwest;" vertex="1" parent="fvgUi23KrRUrC4LZ6PZB-32">
          <mxGeometry y="78" width="200" height="26" as="geometry" />
        </mxCell>
        <mxCell id="fvgUi23KrRUrC4LZ6PZB-38" value="function: transferOwnership()" style="text;strokeColor=none;fillColor=none;align=left;verticalAlign=top;spacingLeft=4;spacingRight=4;overflow=hidden;rotatable=0;points=[[0,0.5],[1,0.5]];portConstraint=eastwest;" vertex="1" parent="fvgUi23KrRUrC4LZ6PZB-32">
          <mxGeometry y="104" width="200" height="26" as="geometry" />
        </mxCell>
        <mxCell id="fvgUi23KrRUrC4LZ6PZB-58" value="" style="edgeStyle=orthogonalEdgeStyle;rounded=0;orthogonalLoop=1;jettySize=auto;html=1;entryX=0;entryY=0.5;entryDx=0;entryDy=0;endArrow=none;endFill=0;" edge="1" parent="1" source="fvgUi23KrRUrC4LZ6PZB-11" target="fvgUi23KrRUrC4LZ6PZB-46">
          <mxGeometry relative="1" as="geometry" />
        </mxCell>
        <mxCell id="fvgUi23KrRUrC4LZ6PZB-60" value="" style="edgeStyle=orthogonalEdgeStyle;rounded=0;orthogonalLoop=1;jettySize=auto;html=1;endArrow=none;endFill=0;entryX=1;entryY=0.5;entryDx=0;entryDy=0;" edge="1" parent="1" source="fvgUi23KrRUrC4LZ6PZB-23" target="fvgUi23KrRUrC4LZ6PZB-46">
          <mxGeometry relative="1" as="geometry">
            <Array as="points">
              <mxPoint x="572" y="200" />
              <mxPoint x="572" y="287" />
            </Array>
          </mxGeometry>
        </mxCell>
        <mxCell id="fvgUi23KrRUrC4LZ6PZB-61" value="" style="edgeStyle=orthogonalEdgeStyle;rounded=0;orthogonalLoop=1;jettySize=auto;html=1;endArrow=none;endFill=0;entryX=1;entryY=0.5;entryDx=0;entryDy=0;exitX=0;exitY=0.5;exitDx=0;exitDy=0;" edge="1" parent="1" source="fvgUi23KrRUrC4LZ6PZB-29" target="fvgUi23KrRUrC4LZ6PZB-46">
          <mxGeometry relative="1" as="geometry" />
        </mxCell>
      </root>
    </mxGraphModel>
  </diagram>
</mxfile>
